<?xml version="1.0" encoding="UTF-8"?>
<svg id="Layer_1" xmlns="http://www.w3.org/2000/svg" version="1.1" viewBox="0 0 24 24">
  <!-- Generator: Adobe Illustrator 29.5.1, SVG Export Plug-In . SVG Version: 2.1.0 Build 141)  -->
  <defs>
    <style>
      .st0 {
        fill: none;
      }

      .st0, .st1 {
        stroke: #000;
        stroke-linecap: round;
        stroke-linejoin: round;
        stroke-width: 2px;
      }
    </style>
  </defs>
  <path class="st0" d="M12,22c-5.52,0-10-4.48-10-10S6.48,2,12,2s10,4.03,10,9c0,2.76-2.24,5-5,5h-2.25c-.97,0-1.75.78-1.75,1.75,0,.38.12.75.35,1.05l.3.4c.58.77.42,1.87-.35,2.45-.3.23-.67.35-1.05.35h-.25Z"/>
  <circle class="st1" cx="13.5" cy="6.5" r=".5"/>
  <circle class="st1" cx="17.5" cy="10.5" r=".5"/>
  <circle class="st1" cx="6.5" cy="12.5" r=".5"/>
  <circle class="st1" cx="8.5" cy="7.5" r=".5"/>
</svg>